<svg width="25" height="25" viewBox="0 0 25 25" fill="none" xmlns="http://www.w3.org/2000/svg">
<g clip-path="url(#clip0_2155_129)">
<path d="M12.4859 12.5C13.7221 12.5 14.9304 12.1334 15.9583 11.4467C16.9861 10.7599 17.7871 9.78381 18.2602 8.64177C18.7332 7.49974 18.857 6.24307 18.6158 5.03069C18.3747 3.81831 17.7794 2.70466 16.9054 1.83059C16.0313 0.956507 14.9176 0.361252 13.7053 0.120095C12.4929 -0.121063 11.2362 0.00270801 10.0942 0.475756C8.95213 0.948803 7.97601 1.74988 7.28925 2.77769C6.60249 3.8055 6.23594 5.01387 6.23594 6.25C6.23594 7.90761 6.89442 9.49732 8.06652 10.6694C9.23862 11.8415 10.8283 12.5 12.4859 12.5ZM12.4859 1.5625C13.413 1.5625 14.3193 1.83742 15.0902 2.35249C15.861 2.86756 16.4618 3.59965 16.8166 4.45617C17.1714 5.3127 17.2642 6.2552 17.0834 7.16449C16.9025 8.07377 16.4561 8.90901 15.8005 9.56456C15.1449 10.2201 14.3097 10.6666 13.4004 10.8474C12.4911 11.0283 11.5486 10.9355 10.6921 10.5807C9.83558 10.2259 9.10349 9.62509 8.58842 8.85424C8.07336 8.08338 7.79844 7.1771 7.79844 6.25C7.79844 5.0068 8.2923 3.81452 9.17138 2.93544C10.0505 2.05636 11.2427 1.5625 12.4859 1.5625ZM14.0625 24.2188C14.0625 24.426 13.9802 24.6247 13.8337 24.7712C13.6872 24.9177 13.4885 25 13.2812 25H2.34375C1.72215 25 1.12601 24.7531 0.68647 24.3135C0.246931 23.874 0 23.2779 0 22.6563C0.00206785 20.7921 0.743522 19.0049 2.06169 17.6867C3.37986 16.3685 5.16708 15.6271 7.03125 15.625H13.2812C13.4885 15.625 13.6872 15.7073 13.8337 15.8538C13.9802 16.0003 14.0625 16.1991 14.0625 16.4063C14.0625 16.6135 13.9802 16.8122 13.8337 16.9587C13.6872 17.1052 13.4885 17.1875 13.2812 17.1875H7.03125C5.58085 17.1875 4.18985 17.7637 3.16426 18.7893C2.13867 19.8149 1.5625 21.2058 1.5625 22.6563C1.5625 22.8635 1.64481 23.0622 1.79132 23.2087C1.93783 23.3552 2.13655 23.4375 2.34375 23.4375H13.2812C13.4885 23.4375 13.6872 23.5198 13.8337 23.6663C13.9802 23.8128 14.0625 24.0116 14.0625 24.2188ZM25 19.5313C25 19.7385 24.9177 19.9372 24.7712 20.0837C24.6247 20.2302 24.426 20.3125 24.2188 20.3125H20.3125V24.2188C20.3125 24.426 20.2302 24.6247 20.0837 24.7712C19.9372 24.9177 19.7385 25 19.5312 25C19.324 25 19.1253 24.9177 18.9788 24.7712C18.8323 24.6247 18.75 24.426 18.75 24.2188V20.3125H14.8438C14.6365 20.3125 14.4378 20.2302 14.2913 20.0837C14.1448 19.9372 14.0625 19.7385 14.0625 19.5313C14.0625 19.3241 14.1448 19.1253 14.2913 18.9788C14.4378 18.8323 14.6365 18.75 14.8438 18.75H18.75V14.8438C18.75 14.6366 18.8323 14.4378 18.9788 14.2913C19.1253 14.1448 19.324 14.0625 19.5312 14.0625C19.7385 14.0625 19.9372 14.1448 20.0837 14.2913C20.2302 14.4378 20.3125 14.6366 20.3125 14.8438V18.75H24.2188C24.426 18.75 24.6247 18.8323 24.7712 18.9788C24.9177 19.1253 25 19.3241 25 19.5313Z" fill="white"/>
</g>
<defs>
<clipPath id="clip0_2155_129">
<rect width="25" height="25" fill="white"/>
</clipPath>
</defs>
</svg>
