<svg width="20" height="20" viewBox="0 0 20 20" fill="none" xmlns="http://www.w3.org/2000/svg">
<path d="M5.83984 14.1602L2.92969 17.0703" stroke="#757B8F" stroke-width="2"/>
<path d="M17.0703 2.92969L14.2773 5.72266" stroke="#757B8F" stroke-width="2"/>
<path d="M10 0.625C11.2656 0.625 12.4922 0.871094 13.6484 1.36328C14.7656 1.83594 15.7656 2.51172 16.6289 3.37109C17.4883 4.23047 18.168 5.23438 18.6367 6.35156C19.125 7.50781 19.375 8.73437 19.375 10C19.375 11.2656 19.1289 12.4922 18.6367 13.6484C18.1641 14.7656 17.4883 15.7656 16.6289 16.6289C15.7695 17.4883 14.7656 18.168 13.6484 18.6367C12.4922 19.125 11.2656 19.375 10 19.375C8.73437 19.375 7.50781 19.1289 6.35156 18.6367C5.23438 18.1641 4.23438 17.4883 3.37109 16.6289C2.51172 15.7695 1.83203 14.7656 1.36328 13.6484C0.871094 12.4922 0.625 11.2656 0.625 10C0.625 8.73437 0.871094 7.50781 1.36328 6.35156C1.83594 5.23438 2.51172 4.23438 3.37109 3.37109C4.23047 2.51172 5.23438 1.83203 6.35156 1.36328C7.50781 0.871094 8.73437 0.625 10 0.625ZM10 0C4.47656 0 0 4.47656 0 10C0 15.5234 4.47656 20 10 20C15.5234 20 20 15.5234 20 10C20 4.47656 15.5234 0 10 0Z" fill="#757B8F"/>
<path d="M10 13.0859L12.1875 11.8359V13.0859L10 14.3359" stroke="#757B8F" stroke-width="0.7"/>
<path d="M10 11.8359L12.1875 10.5859V11.8359L10 13.0859" stroke="#757B8F" stroke-width="0.7"/>
<path d="M10 10.5859L12.1875 9.33594V10.5859L10 11.8359" stroke="#757B8F" stroke-width="0.7"/>
<path d="M10 9.33594L12.1875 8.08594V9.33594L10 10.5859" stroke="#757B8F" stroke-width="0.7"/>
<path d="M10 8.08594L12.1875 6.83594V8.08594L10 9.33594" stroke="#757B8F" stroke-width="0.7"/>
<path d="M10 13.0859L7.8125 11.8359V13.0859L10 14.3359" stroke="#757B8F" stroke-width="0.7"/>
<path d="M10 11.8359L7.8125 10.5859V11.8359L10 13.0859" stroke="#757B8F" stroke-width="0.7"/>
<path d="M10 10.5859L7.8125 9.33594V10.5859L10 11.8359" stroke="#757B8F" stroke-width="0.7"/>
<path d="M10 9.33594L7.8125 8.08594V9.33594L10 10.5859" stroke="#757B8F" stroke-width="0.7"/>
<path d="M10 8.08594L7.8125 6.83594V8.08594L10 9.33594" stroke="#757B8F" stroke-width="0.7"/>
<path d="M10 4.02734V16.8359" stroke="#757B8F" stroke-width="0.7" stroke-linecap="round"/>
<path d="M7.8125 5.42969V6.83594" stroke="#757B8F" stroke-width="0.7" stroke-linecap="round"/>
<path d="M12.1875 5.42969V6.83594" stroke="#757B8F" stroke-width="0.7" stroke-linecap="round"/>
</svg>
