<svg width="14" height="14" viewBox="0 0 14 14" fill="none" xmlns="http://www.w3.org/2000/svg">
<g clip-path="url(#clip0_78_1443)">
<path d="M7 0C3.14014 0 0 3.14014 0 7C0 10.8599 3.14014 14 7 14C10.8599 14 14 10.8599 14 7C14 3.14014 10.8599 0 7 0ZM7 12.4699C3.98379 12.4699 1.53005 10.0162 1.53005 7C1.53005 3.98394 3.98379 1.53005 7 1.53005C10.0162 1.53005 12.4699 3.98394 12.4699 7C12.4699 10.0162 10.0162 12.4699 7 12.4699Z" fill="black"/>
<path d="M7.60613 7.00859V4.07474C7.60613 3.74715 7.34067 3.48169 7.01321 3.48169C6.68565 3.48169 6.42017 3.74715 6.42017 4.07474V7.19805C6.42017 7.20737 6.42247 7.21612 6.42292 7.22545C6.41512 7.3867 6.47067 7.55043 6.59382 7.67361L8.80248 9.88209C9.03413 10.1138 9.4096 10.1138 9.64108 9.88209C9.87259 9.65043 9.87274 9.27497 9.64108 9.04346L7.60613 7.00859Z" fill="black"/>
</g>
<defs>
<clipPath id="clip0_78_1443">
<rect width="14" height="14" rx="7" fill="white"/>
</clipPath>
</defs>
</svg>
