<svg width="23" height="22" viewBox="0 0 23 22" fill="none" xmlns="http://www.w3.org/2000/svg">
<path d="M18.145 12.7538L21.6882 10.1234L20.1851 8.09873C19.3246 8.73755 18.1405 8.51742 17.5393 7.70755C16.938 6.89768 17.07 5.70053 17.9304 5.06171L16.4273 3.03704L12.8842 5.66747" stroke="#757B8F" stroke-width="1.2" stroke-miterlimit="10" stroke-linecap="round" stroke-linejoin="round"/>
<path d="M11.3657 6.7948L2.25464 13.5588L3.75774 15.5834C4.61823 14.9446 5.80233 15.1648 6.40358 15.9746C7.00482 16.7845 6.87288 17.9816 6.01239 18.6205L7.5155 20.6451L16.6265 13.8812" stroke="#757B8F" stroke-width="1.2" stroke-miterlimit="10" stroke-linecap="round" stroke-linejoin="round"/>
<path d="M12.8842 5.66747L13.6357 6.6798" stroke="#757B8F" stroke-width="1.2" stroke-miterlimit="10" stroke-linecap="round" stroke-linejoin="round"/>
<path d="M17.3934 11.7415L18.145 12.7538" stroke="#757B8F" stroke-width="1.2" stroke-miterlimit="10" stroke-linecap="round" stroke-linejoin="round"/>
<path d="M6.7948 13.3288L11.8565 9.57103" stroke="#757B8F" stroke-width="1.2" stroke-miterlimit="10" stroke-linecap="round" stroke-linejoin="round"/>
<path d="M10.8287 13.4746L13.3596 11.5957" stroke="#757B8F" stroke-width="1.2" stroke-miterlimit="10" stroke-linecap="round" stroke-linejoin="round"/>
<path d="M10.1234 3.00621L10.875 4.01855" stroke="#757B8F" stroke-width="1.2" stroke-miterlimit="10" stroke-linecap="round" stroke-linejoin="round"/>
<path d="M14.7631 8.19829L16.2662 10.223" stroke="#757B8F" stroke-width="1.2" stroke-miterlimit="10" stroke-linecap="round" stroke-linejoin="round"/>
<path d="M12.8996 2.51544L12.7692 3.39739" stroke="#757B8F" stroke-width="1.2" stroke-miterlimit="10" stroke-linecap="round" stroke-linejoin="round"/>
<path d="M8.85022 5.52165L9.73216 5.65205" stroke="#757B8F" stroke-width="1.2" stroke-miterlimit="10" stroke-linecap="round" stroke-linejoin="round"/>
</svg>
