<svg width="21" height="15" viewBox="0 0 21 15" fill="none" xmlns="http://www.w3.org/2000/svg">
<path d="M5.58147 11.7151H12.5452C12.7444 11.7151 12.9353 11.6372 13.0761 11.4985C13.2169 11.3598 13.296 11.1717 13.296 10.9755V1.48964C13.296 1.29347 13.2169 1.10534 13.0761 0.966635C12.9353 0.827926 12.7444 0.75 12.5452 0.75H1.50081C1.30168 0.75 1.11071 0.827926 0.969907 0.966635C0.829103 1.10534 0.75 1.29347 0.75 1.48964V10.9681C0.75 11.1643 0.829103 11.3524 0.969907 11.4911C1.11071 11.6298 1.30168 11.7077 1.50081 11.7077H2.47686" stroke="white" stroke-width="1.5"/>
<path d="M14.8843 11.7158H13.3301V4.06055H17.0128C17.067 4.06054 17.1206 4.07211 17.1699 4.09446C17.2191 4.1168 17.2629 4.14939 17.2981 4.18998L19.6632 6.98212C19.7191 7.04865 19.7497 7.13239 19.7495 7.2188V11.7158H18.139" stroke="white" stroke-width="1.5"/>
<path d="M4.07305 13.8596C4.9936 13.8596 5.73985 13.1145 5.73985 12.1954C5.73985 11.2763 4.9936 10.5312 4.07305 10.5312C3.1525 10.5312 2.40625 11.2763 2.40625 12.1954C2.40625 13.1145 3.1525 13.8596 4.07305 13.8596Z" stroke="white" stroke-width="1.5"/>
<path d="M16.4793 13.8596C17.3998 13.8596 18.1461 13.1145 18.1461 12.1954C18.1461 11.2763 17.3998 10.5312 16.4793 10.5312C15.5588 10.5312 14.8125 11.2763 14.8125 12.1954C14.8125 13.1145 15.5588 13.8596 16.4793 13.8596Z" stroke="white" stroke-width="1.5"/>
</svg>
