<svg width="15" height="15" viewBox="0 0 15 15" fill="none" xmlns="http://www.w3.org/2000/svg">
<path d="M1.89158 9.35779L0.825989 8.29219C0.391337 7.85754 0.391337 7.14247 0.825989 6.70782L1.89158 5.64221C2.07385 5.45994 2.22107 5.10239 2.22107 4.85002V3.34274C2.22107 2.72582 2.72583 2.22107 3.34276 2.22107H4.85002C5.1024 2.22107 5.45993 2.07387 5.6422 1.8916L6.7078 0.825989C7.14245 0.391337 7.85753 0.391337 8.29218 0.825989L9.35778 1.8916C9.54005 2.07387 9.89759 2.22107 10.15 2.22107H11.6572C12.2741 2.22107 12.7789 2.72582 12.7789 3.34274V4.85002C12.7789 5.10239 12.9261 5.45994 13.1084 5.64221L14.174 6.70782C14.6087 7.14247 14.6087 7.85754 14.174 8.29219L13.1084 9.35779C12.9261 9.54006 12.7789 9.8976 12.7789 10.15V11.6572C12.7789 12.2741 12.2741 12.7789 11.6572 12.7789H10.15C9.89759 12.7789 9.54005 12.9261 9.35778 13.1084L8.29218 14.174C7.85753 14.6087 7.14245 14.6087 6.7078 14.174L5.6422 13.1084C5.45993 12.9261 5.1024 12.7789 4.85002 12.7789H3.34276C2.72583 12.7789 2.22107 12.2741 2.22107 11.6572V10.15C2.22107 9.89059 2.07385 9.53305 1.89158 9.35779Z" stroke="#757B8F" stroke-linecap="round" stroke-linejoin="round"/>
<path d="M5.40466 9.5959L9.61097 5.38959" stroke="#757B8F" stroke-linecap="round" stroke-linejoin="round"/>
<path d="M9.25659 9.24536H9.26328" stroke="#757B8F" stroke-width="3" stroke-linecap="round" stroke-linejoin="round"/>
<path d="M5.75134 5.74011H5.75802" stroke="#757B8F" stroke-width="3" stroke-linecap="round" stroke-linejoin="round"/>
</svg>
