<svg width="28" height="28" viewBox="0 0 28 28" fill="none" xmlns="http://www.w3.org/2000/svg">
<g clip-path="url(#clip0_637_125)">
<path fill-rule="evenodd" clip-rule="evenodd" d="M0 6.3987C0 5.77213 0.507948 5.26418 1.13452 5.26418H26.8503C27.4769 5.26418 27.9849 5.77213 27.9849 6.3987C27.9849 7.02528 27.4769 7.53322 26.8503 7.53322H1.13452C0.507948 7.53322 0 7.02528 0 6.3987ZM0 13.9622C0 13.3356 0.507948 12.8277 1.13452 12.8277H13.2361C13.8626 12.8277 14.3706 13.3356 14.3706 13.9622C14.3706 14.5887 13.8626 15.0967 13.2361 15.0967H1.13452C0.507948 15.0967 0 14.5887 0 13.9622ZM0 21.5257C0 20.8991 0.507948 20.3911 1.13452 20.3911H14.7488C15.3753 20.3911 15.8833 20.8991 15.8833 21.5257C15.8833 22.1522 15.3753 22.6602 14.7488 22.6602H1.13452C0.507948 22.6602 0 22.1522 0 21.5257Z" fill="#1F1F20"/>
<path d="M24.4758 13.1449C24.9189 13.5879 24.9189 14.3062 24.4758 14.7492L20.694 18.531C20.251 18.974 19.5327 18.974 19.0897 18.531C18.6466 18.0879 18.6466 17.3697 19.0897 16.9266L20.9345 15.0816L1.13442 15.0816C0.507864 15.0816 -9.91821e-05 14.5736 -9.91821e-05 13.9471C-9.91821e-05 13.3205 0.507864 12.8125 1.13442 12.8125L20.9345 12.8125L19.0897 10.9675C18.6466 10.5244 18.6466 9.8062 19.0897 9.36313C19.5327 8.92007 20.251 8.92007 20.694 9.36313L24.4758 13.1449Z" fill="#1F1F20"/>
</g>
<defs>
<clipPath id="clip0_637_125">
<rect width="28" height="28" fill="white"/>
</clipPath>
</defs>
</svg>
