<svg width="28" height="28" viewBox="0 0 28 28" fill="none" xmlns="http://www.w3.org/2000/svg">
<path fill-rule="evenodd" clip-rule="evenodd" d="M0 6.39871C0 5.77214 0.507948 5.26419 1.13452 5.26419H26.8503C27.4769 5.26419 27.9849 5.77214 27.9849 6.39871C27.9849 7.02529 27.4769 7.53323 26.8503 7.53323H1.13452C0.507948 7.53323 0 7.02529 0 6.39871ZM0 13.9622C0 13.3356 0.507948 12.8277 1.13452 12.8277H13.2361C13.8626 12.8277 14.3706 13.3356 14.3706 13.9622C14.3706 14.5887 13.8626 15.0967 13.2361 15.0967H1.13452C0.507948 15.0967 0 14.5887 0 13.9622ZM0 21.5257C0 20.8991 0.507948 20.3911 1.13452 20.3911H14.7488C15.3753 20.3911 15.8833 20.8991 15.8833 21.5257C15.8833 22.1522 15.3753 22.6602 14.7488 22.6602H1.13452C0.507948 22.6602 0 22.1522 0 21.5257Z" fill="#1F1F20"/>
<path d="M24.4759 13.1449C24.919 13.5879 24.919 14.3062 24.4759 14.7492L20.6942 18.531C20.2511 18.974 19.5329 18.974 19.0898 18.531C18.6467 18.0879 18.6467 17.3697 19.0898 16.9266L20.9347 15.0816L1.13454 15.0816C0.507986 15.0816 2.28882e-05 14.5736 2.28882e-05 13.947C2.28882e-05 13.3205 0.507986 12.8125 1.13454 12.8125L20.9347 12.8125L19.0898 10.9675C18.6467 10.5244 18.6467 9.80619 19.0898 9.36312C19.5329 8.92006 20.2511 8.92006 20.6942 9.36312L24.4759 13.1449Z" fill="#1F1F20"/>
</svg>
