<svg width="16" height="12" viewBox="0 0 16 12" fill="none" xmlns="http://www.w3.org/2000/svg">
<path fill-rule="evenodd" clip-rule="evenodd" d="M5.3125 0.952665H0.703123C0.527342 0.952665 0.382811 1.0972 0.382811 1.27298V3.95657H0.351562C0.157551 3.95657 0 4.11543 0 4.30813V4.70006C0 4.89668 0.161457 5.05683 0.35677 5.05683H2.83073C0.992187 5.2209 -0.0585938 6.93053 0.0559883 9.15319H1.69141C1.69271 10.2248 2.5625 11.092 3.63411 11.092C4.70573 11.092 5.57552 10.2235 5.57682 9.15319H10.5729C10.5742 9.11803 10.5755 9.08418 10.5768 9.04902C10.5729 9.2847 10.5872 9.5347 10.6211 9.80163L14.9753 7.75084L16 7.26647C15.1771 6.33027 14.1849 5.93704 12.9844 6.20787C12.7995 6.25475 12.625 6.30944 12.4596 6.37194C12.6289 6.30683 12.8073 6.25215 12.9948 6.20527L11.625 1.69355L12.2435 1.68183C12.3711 1.67923 12.5091 1.71438 12.5964 1.65188C12.7474 1.64798 12.8789 1.55683 12.9701 1.4136C13.0521 1.286 13.1016 1.11152 13.1016 0.921415C13.1016 0.731311 13.0508 0.556832 12.9701 0.429228C12.9023 0.323759 12.8138 0.246936 12.7122 0.21178C12.7109 0.190946 12.7096 0.176623 12.707 0.172717C12.5612 -0.0603558 12.2773 0.00995672 12.0247 0.00995672L11.7786 0.0255817C11.6003 0.0477171 11.4258 0.106311 11.2578 0.202665L10.9766 0.360217H10.7487L9.98307 0.508655C9.73307 0.556832 9.69661 0.535998 9.75521 0.844592C9.76302 0.883655 9.77213 0.922717 9.78516 0.960478C9.86068 1.18574 9.92057 1.1024 10.1536 1.05423L10.8711 0.90579C10.8437 1.19485 10.9349 1.54902 11.0638 1.96308C10.651 2.31204 10.4661 2.80944 10.7474 3.46438L11.4323 5.57506C10.2839 6.38886 9.59375 7.12584 9.55469 8.33548H8.03516C7.09896 7.62584 7.25391 6.36282 8.28125 5.55553V5.05814V4.29772C8.27995 4.05683 8.15104 3.94876 7.91146 3.95527H5.63281V1.27298C5.63281 1.0972 5.48828 0.952665 5.3125 0.952665ZM4.19271 3.47089H1.82161C1.80338 3.47089 1.78776 3.48652 1.78776 3.50475V3.57246C1.78776 3.59069 1.80338 3.60631 1.82161 3.60631H4.19271C4.21094 3.60631 4.22656 3.59069 4.22656 3.57246V3.50475C4.22656 3.48652 4.21224 3.47089 4.19271 3.47089ZM2.90885 1.99694C2.21484 2.05293 1.71224 2.57506 1.79948 3.26256H4.21614C4.30078 2.57116 3.79688 2.04772 3.09766 1.99694V1.80293H3.29036C3.30989 1.80293 3.32552 1.7873 3.32552 1.76777V1.64147C3.32552 1.62194 3.30989 1.60631 3.29036 1.60631H2.72135C2.70182 1.60631 2.6862 1.62194 2.6862 1.64147V1.76777C2.6862 1.7873 2.70182 1.80293 2.72135 1.80293H2.91016V1.99694H2.90885ZM14.9701 7.75345L13.2383 8.57376L13.8008 8.31595C14.1875 8.39798 14.4766 8.74173 14.4766 9.15189C14.4766 9.62454 14.0937 10.0074 13.6211 10.0074C13.1484 10.0074 12.7656 9.62454 12.7656 9.15189C12.7656 9.00605 12.8021 8.86933 12.8659 8.74824L11.6836 9.30814C11.763 10.3081 12.6003 11.0946 13.6198 11.0946C14.6927 11.0946 15.5625 10.2248 15.5625 9.15189C15.5651 8.60241 15.3372 8.10631 14.9701 7.75345ZM12.7096 0.545113C12.7018 0.795113 12.6849 1.11673 12.6732 1.33287C12.694 1.31464 12.7148 1.29121 12.7331 1.26126C12.7878 1.17662 12.8203 1.05553 12.8203 0.920113C12.8203 0.784696 12.7865 0.663603 12.7331 0.578967C12.7253 0.567248 12.7174 0.55553 12.7096 0.545113ZM4.48958 9.15449H2.77864C2.77995 9.62584 3.16276 10.0061 3.63411 10.0061C4.10547 10.0074 4.48828 9.62584 4.48958 9.15449Z" fill="white"/>
</svg>
