<svg width="16" height="16" viewBox="0 0 16 16" fill="none" xmlns="http://www.w3.org/2000/svg">
<g clip-path="url(#clip0_1081_281)">
<path fill-rule="evenodd" clip-rule="evenodd" d="M11.2904 3.64038C11.2769 3.58175 11.2628 3.52298 11.248 3.46415C11.0562 2.69679 10.7541 1.86297 10.2616 1.20623C9.75366 0.529046 9.01208 0.00732422 7.99998 0.00732422C6.98788 0.00732422 6.24629 0.529046 5.73839 1.20623C5.24584 1.86297 4.94375 2.69679 4.75191 3.46416C4.73721 3.52298 4.72307 3.58175 4.70948 3.64038H3.54665C2.39904 3.64038 1.44798 4.53016 1.37164 5.67522L0.838788 13.6679C0.754915 14.9261 1.75284 15.9928 3.0138 15.9928H12.9861C14.2471 15.9928 15.245 14.9261 15.1612 13.6679L14.6283 5.67522C14.552 4.53016 13.6009 3.64038 12.4533 3.64038H11.2904ZM5.09353 7.27345C5.50987 7.27345 5.81873 6.95984 5.82015 6.5455C5.82026 6.52822 5.82046 6.51094 5.82075 6.49366C5.82139 6.45537 5.82269 6.39755 5.82536 6.32299C5.83069 6.17373 5.84143 5.95827 5.86305 5.69891C5.87838 5.51487 5.89904 5.31059 5.92677 5.09361H10.0732C10.1009 5.31059 10.1215 5.51487 10.1369 5.69891C10.1585 5.95827 10.1693 6.17373 10.1746 6.32299C10.1773 6.39755 10.1786 6.45537 10.1792 6.49366C10.1795 6.51148 10.1797 6.5293 10.1798 6.54712C10.1798 6.54712 10.1798 7.27345 10.9064 7.27345C11.633 7.27345 11.633 6.54586 11.633 6.54586C11.633 6.52038 11.6327 6.49491 11.6322 6.46944C11.6314 6.42258 11.6299 6.35552 11.6269 6.27113C11.6209 6.1025 11.6089 5.86383 11.5851 5.57822C11.5727 5.42932 11.557 5.26663 11.5371 5.09361H12.4533C12.8359 5.09361 13.1529 5.3902 13.1783 5.77189L13.7112 13.7646C13.7391 14.184 13.4065 14.5396 12.9861 14.5396H3.0138C2.59348 14.5396 2.26084 14.184 2.28879 13.7646L2.82165 5.77189C2.84709 5.3902 3.16411 5.09361 3.54665 5.09361H4.46289C4.44296 5.26663 4.42725 5.42932 4.41484 5.57823C4.39104 5.86383 4.37908 6.1025 4.37306 6.27113C4.37004 6.35552 4.36851 6.42258 4.36773 6.46944C4.36731 6.49441 4.367 6.51937 4.36692 6.54435C4.36637 6.95897 4.67815 7.27345 5.09353 7.27345ZM6.20781 3.64038H9.79217C9.62418 3.0251 9.3958 2.47393 9.09898 2.07817C8.78944 1.66544 8.44111 1.46055 7.99998 1.46055C7.55885 1.46055 7.21052 1.66544 6.90098 2.07817C6.60416 2.47393 6.3758 3.0251 6.20781 3.64038Z" fill="#757B8F"/>
</g>
<defs>
<clipPath id="clip0_1081_281">
<rect width="16" height="16" fill="white"/>
</clipPath>
</defs>
</svg>
