<svg width="10" height="9" viewBox="0 0 10 9" fill="none" xmlns="http://www.w3.org/2000/svg">
<g clip-path="url(#clip0_81_2450)">
<path d="M9.29261 1.75947L7.39536 1.90623C7.38577 1.90697 7.37663 1.91019 7.36903 1.91551C7.36144 1.92082 7.35571 1.928 7.35254 1.93618C7.34938 1.94436 7.34891 1.95318 7.3512 1.96159C7.35348 1.97001 7.35842 1.97764 7.36542 1.98359L7.84402 2.38983L7.73778 2.48742L7.66689 2.55253L7.30705 2.88874C7.16839 3.02027 7.03029 3.15211 6.89274 3.28426C6.7942 3.3793 6.69622 3.47491 6.59879 3.57107C6.36554 3.80083 6.13528 4.0332 5.90799 4.26819C5.7949 4.38606 5.68223 4.50449 5.57122 4.62423C5.5417 4.65604 5.5126 4.68822 5.48329 4.72021L5.36458 4.66015L3.51255 3.72318L3.21694 3.57369L3.00511 3.78137L2.74005 4.04124L0.65332 6.08694L1.09154 6.47161L3.34936 4.51066H3.34957L4.67129 5.28449L5.34712 5.68019L5.59222 5.8237L5.64834 5.85644L5.96724 5.60498C6.09779 5.50189 6.22633 5.39712 6.35286 5.29066C6.47988 5.18439 6.60502 5.07681 6.72975 4.96886C6.9788 4.75239 7.22417 4.53293 7.46587 4.31047C7.70868 4.08876 7.94691 3.86313 8.18452 3.63712L8.53813 3.29548L8.58595 3.24852L8.71097 3.12572L9.16794 3.5136C9.17487 3.51948 9.18352 3.52345 9.19287 3.52504C9.20223 3.52663 9.2119 3.52578 9.22073 3.52259C9.22957 3.5194 9.2372 3.51399 9.24273 3.50702C9.24827 3.50004 9.25146 3.49179 9.25195 3.48323L9.34668 1.80646C9.34704 1.80006 9.34587 1.79366 9.34326 1.7877C9.34064 1.78174 9.33664 1.77635 9.33152 1.7719C9.32639 1.76745 9.32027 1.76404 9.31356 1.76189C9.30685 1.75975 9.2997 1.75892 9.29261 1.75947Z" fill="#E25454"/>
<path d="M1.10107 8.72349C1.10114 8.7624 1.11834 8.79971 1.14891 8.82722C1.17949 8.85474 1.22094 8.87022 1.26417 8.87028H2.39476C2.43799 8.87022 2.47944 8.85474 2.51002 8.82722C2.54059 8.79971 2.55779 8.7624 2.55786 8.72349V5.75449L1.10107 7.01972V8.72349Z" fill="black"/>
<path d="M3.12134 5.26507V8.72349C3.1214 8.7624 3.1386 8.79971 3.16918 8.82722C3.19975 8.85474 3.2412 8.87022 3.28444 8.87028H4.41502C4.45826 8.87022 4.49971 8.85474 4.53028 8.82722C4.56085 8.7997 4.57806 8.7624 4.57812 8.72349V5.70745L3.40361 5.01987L3.12134 5.26507Z" fill="black"/>
<path d="M5.68849 6.35699L5.14136 6.03722V8.72349C5.14142 8.7624 5.15862 8.79971 5.1892 8.82722C5.21977 8.85474 5.26122 8.87022 5.30446 8.87028H6.43504C6.47828 8.87022 6.51973 8.85474 6.5503 8.82722C6.58087 8.7997 6.59808 8.7624 6.59814 8.72349V5.63205C6.48953 5.72263 6.37592 5.8147 6.26045 5.90595L5.68849 6.35699Z" fill="black"/>
<path d="M7.78251 4.59151C7.55862 4.79668 7.354 4.98033 7.16162 5.14931V8.72349C7.16168 8.7624 7.17889 8.79971 7.20946 8.82722C7.24003 8.85474 7.28148 8.87022 7.32472 8.87028H8.4553C8.49854 8.87022 8.53999 8.85474 8.57056 8.82722C8.60114 8.7997 8.61834 8.7624 8.6184 8.72349V3.80518L8.50757 3.91227C8.27793 4.13062 8.03291 4.36298 7.78251 4.59151Z" fill="black"/>
<g clip-path="url(#clip1_81_2450)">
<path d="M5.33521 0.377344C5.54289 0.377344 5.78573 0.459375 5.9589 0.564258V0.127734C5.78312 0.0521484 5.54354 0.00292969 5.33521 0.00292969C4.98885 0.00292969 4.74341 0.0861328 4.51164 0.26543C4.27987 0.444727 4.10083 0.683789 4.01815 1.00078H3.74146V1.3752H4.0188V1.6248H3.74146V1.99922H4.0188C4.15747 2.68535 4.6425 2.99707 5.33586 2.99707C5.6132 2.99707 5.74471 2.97246 5.95955 2.87227V2.43574C5.74731 2.55293 5.53052 2.62266 5.33586 2.62266C4.91789 2.62266 4.66528 2.42344 4.55786 1.9998L5.68221 1.99922V1.6248H4.57284V1.3752H5.68156V1.00078H4.57284C4.63078 0.802734 4.72778 0.65332 4.87297 0.535547C5.0188 0.417773 5.12752 0.377344 5.33521 0.377344Z" fill="black"/>
</g>
</g>
<defs>
<clipPath id="clip0_81_2450">
<rect width="10" height="9" fill="white"/>
</clipPath>
<clipPath id="clip1_81_2450">
<rect width="3.33333" height="3" fill="white" transform="translate(3.33325)"/>
</clipPath>
</defs>
</svg>
