<svg width="10" height="9" viewBox="0 0 10 9" fill="none" xmlns="http://www.w3.org/2000/svg">
<g clip-path="url(#clip0_81_2673)">
<path d="M9.29261 1.7595L7.39536 1.90626C7.38577 1.907 7.37663 1.91023 7.36903 1.91554C7.36144 1.92085 7.35571 1.92803 7.35254 1.93621C7.34938 1.94439 7.34891 1.95321 7.3512 1.96163C7.35348 1.97004 7.35842 1.97767 7.36542 1.98362L7.84402 2.38986L7.73778 2.48745L7.66689 2.55256L7.30705 2.88877C7.16839 3.0203 7.03029 3.15214 6.89274 3.28429C6.7942 3.37933 6.69622 3.47494 6.59879 3.5711C6.36554 3.80086 6.13528 4.03323 5.90799 4.26822C5.7949 4.38609 5.68223 4.50452 5.57122 4.62426C5.5417 4.65607 5.5126 4.68825 5.48329 4.72024L5.36458 4.66018L3.51255 3.72321L3.21694 3.57372L3.00511 3.7814L2.74005 4.04127L0.65332 6.08697L1.09154 6.47164L3.34936 4.51069H3.34957L4.67129 5.28452L5.34712 5.68023L5.59222 5.82373L5.64834 5.85647L5.96724 5.60501C6.09779 5.50192 6.22633 5.39715 6.35286 5.29069C6.47988 5.18442 6.60502 5.07684 6.72975 4.96889C6.9788 4.75242 7.22417 4.53296 7.46587 4.3105C7.70868 4.08879 7.94691 3.86316 8.18452 3.63715L8.53813 3.29551L8.58595 3.24855L8.71097 3.12575L9.16794 3.51363C9.17487 3.51951 9.18352 3.52348 9.19287 3.52507C9.20223 3.52667 9.2119 3.52582 9.22073 3.52262C9.22957 3.51943 9.2372 3.51402 9.24273 3.50705C9.24827 3.50007 9.25146 3.49182 9.25195 3.48326L9.34668 1.80649C9.34704 1.80009 9.34587 1.79369 9.34326 1.78773C9.34064 1.78177 9.33664 1.77638 9.33152 1.77193C9.32639 1.76748 9.32027 1.76407 9.31356 1.76192C9.30685 1.75978 9.2997 1.75895 9.29261 1.7595Z" fill="#49B27A"/>
<path d="M1.10107 8.72352C1.10114 8.76243 1.11834 8.79974 1.14891 8.82725C1.17949 8.85477 1.22094 8.87025 1.26417 8.87031H2.39476C2.43799 8.87025 2.47944 8.85477 2.51002 8.82725C2.54059 8.79974 2.55779 8.76243 2.55786 8.72352V5.75452L1.10107 7.01975V8.72352Z" fill="black"/>
<path d="M3.12134 5.2651V8.72352C3.1214 8.76243 3.1386 8.79974 3.16918 8.82725C3.19975 8.85477 3.2412 8.87025 3.28444 8.87031H4.41502C4.45826 8.87025 4.49971 8.85477 4.53028 8.82725C4.56085 8.79974 4.57806 8.76243 4.57812 8.72352V5.70748L3.40361 5.0199L3.12134 5.2651Z" fill="black"/>
<path d="M5.68849 6.35702L5.14136 6.03725V8.72352C5.14142 8.76243 5.15862 8.79974 5.1892 8.82725C5.21977 8.85477 5.26122 8.87025 5.30446 8.87031H6.43504C6.47828 8.87025 6.51973 8.85477 6.5503 8.82725C6.58087 8.79974 6.59808 8.76243 6.59814 8.72352V5.63208C6.48953 5.72266 6.37592 5.81473 6.26045 5.90598L5.68849 6.35702Z" fill="black"/>
<path d="M7.78251 4.59151C7.55862 4.79668 7.354 4.98033 7.16162 5.14931V8.72349C7.16168 8.7624 7.17889 8.79971 7.20946 8.82722C7.24003 8.85474 7.28148 8.87022 7.32472 8.87028H8.4553C8.49854 8.87022 8.53999 8.85474 8.57056 8.82722C8.60114 8.7997 8.61834 8.7624 8.6184 8.72349V3.80518L8.50757 3.91227C8.27793 4.13062 8.03291 4.36298 7.78251 4.59151Z" fill="black"/>
<g clip-path="url(#clip1_81_2673)">
<path d="M5.33521 0.377344C5.54289 0.377344 5.78573 0.459375 5.9589 0.564258V0.127734C5.78312 0.0521484 5.54354 0.00292969 5.33521 0.00292969C4.98885 0.00292969 4.74341 0.0861328 4.51164 0.26543C4.27987 0.444727 4.10083 0.683789 4.01815 1.00078H3.74146V1.3752H4.0188V1.6248H3.74146V1.99922H4.0188C4.15747 2.68535 4.6425 2.99707 5.33586 2.99707C5.6132 2.99707 5.74471 2.97246 5.95955 2.87227V2.43574C5.74731 2.55293 5.53052 2.62266 5.33586 2.62266C4.91789 2.62266 4.66528 2.42344 4.55786 1.9998L5.68221 1.99922V1.6248H4.57284V1.3752H5.68156V1.00078H4.57284C4.63078 0.802734 4.72778 0.65332 4.87297 0.535547C5.0188 0.417773 5.12752 0.377344 5.33521 0.377344Z" fill="black"/>
</g>
</g>
<defs>
<clipPath id="clip0_81_2673">
<rect width="10" height="9" fill="white"/>
</clipPath>
<clipPath id="clip1_81_2673">
<rect width="3.33333" height="3" fill="white" transform="translate(3.33325)"/>
</clipPath>
</defs>
</svg>
