<svg width="31" height="30" viewBox="0 0 31 30" fill="none" xmlns="http://www.w3.org/2000/svg">
<path fill-rule="evenodd" clip-rule="evenodd" d="M21.1878 6.82566C21.1623 6.71571 21.1359 6.60552 21.1082 6.49522C20.7482 5.05642 20.1814 3.493 19.257 2.26163C18.3038 0.991901 16.9121 0.0136719 15.0128 0.0136719C13.1134 0.0136719 11.7217 0.991901 10.7686 2.26163C9.84422 3.493 9.2773 5.05642 8.91728 6.49524C8.88968 6.60552 8.86316 6.71571 8.83765 6.82566H6.65541C4.50176 6.82566 2.71694 8.49398 2.57368 10.641L1.5737 25.6273C1.4163 27.9864 3.28907 29.9864 5.65544 29.9864H24.3701C26.7365 29.9864 28.6092 27.9864 28.4519 25.6273L27.4518 10.641C27.3086 8.49398 25.5238 6.82566 23.3702 6.82566H21.1878ZM9.55838 13.6376C10.3397 13.6376 10.9193 13.0496 10.922 12.2728C10.9222 12.2403 10.9226 12.2079 10.9231 12.1756C10.9243 12.1038 10.9268 11.9953 10.9318 11.8556C10.9418 11.5757 10.9619 11.1717 11.0025 10.6854C11.0313 10.3403 11.07 9.95729 11.1221 9.55046H18.9035C18.9555 9.95729 18.9942 10.3403 19.0231 10.6854C19.0636 11.1717 19.0838 11.5757 19.0938 11.8556C19.0988 11.9953 19.1013 12.1038 19.1025 12.1756C19.103 12.209 19.1034 12.2424 19.1036 12.2758C19.1036 12.2758 19.1036 13.6376 20.4672 13.6376C21.8308 13.6376 21.8308 12.2734 21.8308 12.2734C21.8306 12.2257 21.8301 12.1779 21.8293 12.1301C21.8278 12.0423 21.8249 11.9165 21.8192 11.7583C21.808 11.4421 21.7855 10.9946 21.7408 10.4591C21.7176 10.1799 21.688 9.87487 21.6507 9.55046H23.3702C24.0881 9.55046 24.683 10.1066 24.7307 10.8222L25.7307 25.8086C25.7832 26.595 25.1589 27.2616 24.3701 27.2616H5.65544C4.86666 27.2616 4.2424 26.595 4.29486 25.8086L5.29484 10.8222C5.34259 10.1066 5.93753 9.55046 6.65541 9.55046H8.37488C8.33748 9.87487 8.308 10.1799 8.28471 10.4591C8.24005 10.9946 8.21761 11.4421 8.2063 11.7583C8.20064 11.9165 8.19777 12.0423 8.19631 12.1301C8.19552 12.177 8.19493 12.2238 8.19478 12.2706C8.19374 13.048 8.77885 13.6376 9.55838 13.6376ZM11.6495 6.82566H18.3761C18.0608 5.67201 17.6323 4.63855 17.0752 3.89651C16.4943 3.12264 15.8406 2.73847 15.0128 2.73847C14.1849 2.73847 13.5312 3.12264 12.9503 3.89651C12.3933 4.63855 11.9648 5.67201 11.6495 6.82566Z" fill="#0B1928"/>
</svg>
