<svg width="17" height="17" viewBox="0 0 17 17" fill="none" xmlns="http://www.w3.org/2000/svg">
<g clip-path="url(#clip0_910_11)">
<path d="M0.849976 9.69272V15.8127" stroke="#757B8F" stroke-width="1.2" stroke-linecap="round" stroke-linejoin="round"/>
<path d="M0.849976 10.7127H4.41998C4.96102 10.7127 5.4799 10.9277 5.86247 11.3102C6.24505 11.6928 6.45998 12.2117 6.45998 12.7527H9.00998C9.55098 12.7527 10.0699 12.9677 10.4525 13.3502C10.835 13.7328 11.05 14.2517 11.05 14.7927H0.849976" stroke="#757B8F" stroke-width="1.2" stroke-linecap="round" stroke-linejoin="round"/>
<path d="M4.42004 12.7527H6.46004" stroke="#757B8F" stroke-width="1.2" stroke-linecap="round" stroke-linejoin="round"/>
<path d="M1.87 7.65271H16.15" stroke="#757B8F" stroke-width="1.2" stroke-linecap="round" stroke-linejoin="round"/>
<path d="M9.01001 0.512726V1.53273" stroke="#757B8F" stroke-width="1.2" stroke-linecap="round" stroke-linejoin="round"/>
<path d="M15.13 7.65273C15.13 6.02962 14.4852 4.47297 13.3375 3.32525C12.1898 2.17753 10.6331 1.53275 9.01001 1.53275C7.38692 1.53275 5.83025 2.17753 4.68252 3.32525C3.5348 4.47297 2.89001 6.02962 2.89001 7.65273" stroke="#757B8F" stroke-width="1.2" stroke-linecap="round" stroke-linejoin="round"/>
<path d="M7.98999 9.69272H12.852C13.2301 9.69245 13.6006 9.58718 13.9222 9.38856C14.244 9.19 14.5041 8.90589 14.6737 8.568L15.1038 7.70535" stroke="#757B8F" stroke-width="1.2" stroke-linecap="round" stroke-linejoin="round"/>
</g>
<defs>
<clipPath id="clip0_910_11">
<rect width="17" height="17" fill="white"/>
</clipPath>
</defs>
</svg>
