<svg width="18" height="18" viewBox="0 0 18 18" fill="none" xmlns="http://www.w3.org/2000/svg">
<path d="M14 11V17M11 14H17M12.6 7H15.4C15.9601 7 16.2401 7 16.454 6.89101C16.6422 6.79513 16.7951 6.64215 16.891 6.45399C17 6.24008 17 5.96005 17 5.4V2.6C17 2.03995 17 1.75992 16.891 1.54601C16.7951 1.35785 16.6422 1.20487 16.454 1.10899C16.2401 1 15.9601 1 15.4 1H12.6C12.0399 1 11.7599 1 11.546 1.10899C11.3578 1.20487 11.2049 1.35785 11.109 1.54601C11 1.75992 11 2.03995 11 2.6V5.4C11 5.96005 11 6.24008 11.109 6.45399C11.2049 6.64215 11.3578 6.79513 11.546 6.89101C11.7599 7 12.0399 7 12.6 7ZM2.6 7H5.4C5.96005 7 6.24008 7 6.45399 6.89101C6.64215 6.79513 6.79513 6.64215 6.89101 6.45399C7 6.24008 7 5.96005 7 5.4V2.6C7 2.03995 7 1.75992 6.89101 1.54601C6.79513 1.35785 6.64215 1.20487 6.45399 1.10899C6.24008 1 5.96005 1 5.4 1H2.6C2.03995 1 1.75992 1 1.54601 1.10899C1.35785 1.20487 1.20487 1.35785 1.10899 1.54601C1 1.75992 1 2.03995 1 2.6V5.4C1 5.96005 1 6.24008 1.10899 6.45399C1.20487 6.64215 1.35785 6.79513 1.54601 6.89101C1.75992 7 2.03995 7 2.6 7ZM2.6 17H5.4C5.96005 17 6.24008 17 6.45399 16.891C6.64215 16.7951 6.79513 16.6422 6.89101 16.454C7 16.2401 7 15.9601 7 15.4V12.6C7 12.0399 7 11.7599 6.89101 11.546C6.79513 11.3578 6.64215 11.2049 6.45399 11.109C6.24008 11 5.96005 11 5.4 11H2.6C2.03995 11 1.75992 11 1.54601 11.109C1.35785 11.2049 1.20487 11.3578 1.10899 11.546C1 11.7599 1 12.0399 1 12.6V15.4C1 15.9601 1 16.2401 1.10899 16.454C1.20487 16.6422 1.35785 16.7951 1.54601 16.891C1.75992 17 2.03995 17 2.6 17Z" stroke="#0C831F" stroke-width="2" stroke-linecap="round" stroke-linejoin="round"/>
</svg>
