<svg width="16" height="16" viewBox="0 0 16 16" fill="none" xmlns="http://www.w3.org/2000/svg">
<path fill-rule="evenodd" clip-rule="evenodd" d="M2 0C0.89543 0 0 0.89543 0 2V5C0 6.1046 0.89543 7 2 7H5C6.1046 7 7 6.1046 7 5V2C7 0.89543 6.1046 0 5 0H2ZM2 2H5V5H2V2ZM10 2C9.4477 2 9 2.44772 9 3C9 3.55228 9.4477 4 10 4H15C15.5523 4 16 3.55228 16 3C16 2.44772 15.5523 2 15 2H10ZM10 11C9.4477 11 9 11.4477 9 12C9 12.5523 9.4477 13 10 13H15C15.5523 13 16 12.5523 16 12C16 11.4477 15.5523 11 15 11H10ZM0 11C0 9.8954 0.89543 9 2 9H5C6.1046 9 7 9.8954 7 11V14C7 15.1046 6.1046 16 5 16H2C0.89543 16 0 15.1046 0 14V11ZM5 11H2V14H5V11Z" fill="#757B8F"/>
</svg>
