<svg width="16" height="16" viewBox="0 0 16 16" fill="none" xmlns="http://www.w3.org/2000/svg">
<g clip-path="url(#clip0_1081_293)">
<mask id="path-1-inside-1_1081_293" fill="white">
<path d="M4.00502 11.995V7.00127V11.995ZM8.00002 11.995V4.00502V11.995ZM11.995 11.995V9.99753V11.995ZM8.99877 0.0100098H2.00751C0.904322 0.0100098 0.0100098 0.904322 0.0100098 2.00751V13.9925C0.0100098 15.0958 0.904322 15.99 2.00751 15.99H13.9925C15.0958 15.99 15.99 15.0958 15.99 13.9925V7.00127"/>
</mask>
<path d="M2.80502 11.995C2.80502 12.6578 3.34227 13.195 4.00502 13.195C4.66776 13.195 5.20502 12.6578 5.20502 11.995H4.00502H2.80502ZM5.20502 7.00127C5.20502 6.33853 4.66776 5.80127 4.00502 5.80127C3.34227 5.80127 2.80502 6.33853 2.80502 7.00127H4.00502H5.20502ZM6.80002 11.995C6.80002 12.6578 7.33728 13.195 8.00002 13.195C8.66276 13.195 9.20002 12.6578 9.20002 11.995H8.00002H6.80002ZM9.20002 4.00502C9.20002 3.34227 8.66276 2.80502 8.00002 2.80502C7.33728 2.80502 6.80002 3.34227 6.80002 4.00502H8.00002H9.20002ZM10.795 11.995C10.795 12.6578 11.3323 13.195 11.995 13.195C12.6578 13.195 13.195 12.6578 13.195 11.995H11.995H10.795ZM13.195 9.99753C13.195 9.33478 12.6578 8.79753 11.995 8.79753C11.3323 8.79753 10.795 9.33478 10.795 9.99753H11.995H13.195ZM8.99877 1.21001C9.66152 1.21001 10.1988 0.672751 10.1988 0.0100098C10.1988 -0.652732 9.66152 -1.18999 8.99877 -1.18999V0.0100098V1.21001ZM17.19 7.00127C17.19 6.33853 16.6528 5.80127 15.99 5.80127C15.3273 5.80127 14.79 6.33853 14.79 7.00127H15.99H17.19ZM4.00502 11.995H5.20502V7.00127H4.00502H2.80502V11.995H4.00502ZM8.00002 11.995H9.20002V4.00502H8.00002H6.80002V11.995H8.00002ZM11.995 11.995H13.195V9.99753H11.995H10.795V11.995H11.995ZM8.99877 0.0100098V-1.18999H2.00751V0.0100098V1.21001H8.99877V0.0100098ZM2.00751 0.0100098V-1.18999C0.24158 -1.18999 -1.18999 0.24158 -1.18999 2.00751H0.0100098H1.21001C1.21001 1.56706 1.56706 1.21001 2.00751 1.21001V0.0100098ZM0.0100098 2.00751H-1.18999V13.9925H0.0100098H1.21001V2.00751H0.0100098ZM0.0100098 13.9925H-1.18999C-1.18999 15.7585 0.241592 17.19 2.00751 17.19V15.99V14.79C1.56705 14.79 1.21001 14.433 1.21001 13.9925H0.0100098ZM2.00751 15.99V17.19H13.9925V15.99V14.79H2.00751V15.99ZM13.9925 15.99V17.19C15.7585 17.19 17.19 15.7585 17.19 13.9925H15.99H14.79C14.79 14.433 14.433 14.79 13.9925 14.79V15.99ZM15.99 13.9925H17.19V7.00127H15.99H14.79V13.9925H15.99Z" fill="#757B8F" mask="url(#path-1-inside-1_1081_293)"/>
</g>
<defs>
<clipPath id="clip0_1081_293">
<rect width="16" height="16" fill="white"/>
</clipPath>
</defs>
</svg>
