<svg width="13" height="17" viewBox="0 0 13 17" fill="none" xmlns="http://www.w3.org/2000/svg">
<path d="M7.09088 10.6364H5.90906V13H7.09088V10.6364Z" fill="#757B8F"/>
<path d="M10.0455 9.45453H8.86365V13H10.0455V9.45453Z" fill="#757B8F"/>
<path d="M4.13641 7.09094H2.95459V13H4.13641V7.09094Z" fill="#757B8F"/>
<path d="M11.8182 1.77273H10.0455V1.18182C10.0455 0.868381 9.92094 0.56778 9.69931 0.346146C9.47767 0.124513 9.17707 0 8.86364 0H4.13636C3.82293 0 3.52233 0.124513 3.30069 0.346146C3.07906 0.56778 2.95455 0.868381 2.95455 1.18182V1.77273H1.18182C0.86838 1.77273 0.56778 1.89724 0.346146 2.11887C0.124513 2.34051 0 2.64111 0 2.95455V15.3636C0 15.6771 0.124513 15.9777 0.346146 16.1993C0.56778 16.4209 0.86838 16.5455 1.18182 16.5455H11.8182C12.1316 16.5455 12.4322 16.4209 12.6539 16.1993C12.8755 15.9777 13 15.6771 13 15.3636V2.95455C13 2.64111 12.8755 2.34051 12.6539 2.11887C12.4322 1.89724 12.1316 1.77273 11.8182 1.77273ZM4.13636 1.18182H8.86364V3.54545H4.13636V1.18182ZM11.8182 15.3636H1.18182V2.95455H2.95455V4.72727H10.0455V2.95455H11.8182V15.3636Z" fill="#757B8F"/>
</svg>
