<svg width="22" height="12" viewBox="0 0 22 12" fill="none" xmlns="http://www.w3.org/2000/svg">
<path d="M20.8062 6.23827L21.9825 0.899552C22.0705 0.500615 21.8182 0.105589 21.4193 0.0180773C21.0203 -0.0709012 20.6258 0.181857 20.5383 0.580794L19.4896 5.33919H14.7733C14.365 5.33919 14.0341 5.67017 14.0341 6.07889C14.0341 6.4876 14.365 6.81858 14.7733 6.81858H15.0534L13.4606 10.5894C13.3017 10.9664 13.4772 11.3995 13.8541 11.5584C13.947 11.598 14.0458 11.6171 14.1416 11.6171C14.4301 11.6171 14.7038 11.4469 14.8231 11.1648L16.2771 7.72401L18.5832 7.7245L20.0357 11.1648C20.1956 11.5413 20.6297 11.7158 21.0047 11.5584C21.3811 11.3995 21.5571 10.9659 21.3983 10.5894L19.8059 6.81858H20.0861C20.4312 6.8181 20.7304 6.57756 20.8062 6.23827Z" fill="#0C831F"/>
<path d="M6.94608 6.818H7.22622C7.63445 6.818 7.96543 6.48702 7.96543 6.0783C7.96543 5.66959 7.63445 5.33861 7.22622 5.33861H2.50987L1.46168 0.580698C1.37319 0.181761 0.977676 -0.0714856 0.580695 0.0179818C0.182247 0.105494 -0.070511 0.50052 0.0174898 0.899457L1.19377 6.23817C1.26857 6.57697 1.56875 6.81849 1.91586 6.81849H2.196L0.603184 10.5903C0.444294 10.9667 0.620295 11.3994 0.996743 11.5583C1.37221 11.7167 1.80635 11.5407 1.96573 11.1648L3.41823 7.72441L5.72434 7.72392L7.17733 11.1648C7.29662 11.4468 7.5704 11.617 7.85885 11.617C7.95467 11.617 8.05245 11.5979 8.14632 11.5583C8.52277 11.3994 8.69877 10.9658 8.53988 10.5903L6.94608 6.818Z" fill="#0C831F"/>
<path d="M12.1548 10.137H11.7382V3.75942H15.7129C16.1211 3.75942 16.4526 3.42844 16.4526 3.02021C16.4526 2.61199 16.1211 2.28052 15.7129 2.28052H6.28511C5.87688 2.28052 5.54541 2.61199 5.54541 3.02021C5.54541 3.42795 5.87688 3.75942 6.28511 3.75942H10.2598V10.137H9.84327C9.43505 10.137 9.10406 10.469 9.10406 10.8772C9.10406 11.2854 9.43505 11.6169 9.84327 11.6169H12.1548C12.564 11.6169 12.8949 11.2854 12.8949 10.8772C12.8949 10.469 12.564 10.137 12.1548 10.137Z" fill="#0C831F"/>
</svg>
