<svg width="17" height="17" viewBox="0 0 17 17" fill="none" xmlns="http://www.w3.org/2000/svg">
<path d="M8.24999 10.5C9.568 10.5 10.6365 9.49264 10.6365 8.25C10.6365 7.00736 9.568 6 8.24999 6C6.93198 6 5.86353 7.00736 5.86353 8.25C5.86353 9.49264 6.93198 10.5 8.24999 10.5Z" stroke="#757B8F" stroke-width="1.5"/>
<path d="M1.61664 7.2294C1.99255 7.45208 2.23441 7.83142 2.23441 8.24992C2.23441 8.6685 1.99254 9.04785 1.61664 9.27052C1.36084 9.42202 1.19603 9.54315 1.07878 9.68722C0.821904 10.0029 0.708539 10.4018 0.763619 10.7962C0.804921 11.092 0.990246 11.3946 1.3609 11.9999C1.73155 12.6052 1.91688 12.9078 2.16794 13.0895C2.5027 13.3316 2.92579 13.4385 3.34414 13.3866C3.53508 13.3629 3.72871 13.2889 3.99574 13.1558C4.3883 12.9602 4.85775 12.9524 5.24226 13.1617C5.62674 13.3711 5.85425 13.7582 5.87083 14.1765C5.88213 14.4611 5.91097 14.6563 5.98468 14.824C6.14616 15.1915 6.45588 15.4836 6.84569 15.6358C7.13811 15.75 7.50873 15.75 8.25005 15.75C8.99136 15.75 9.36198 15.75 9.6544 15.6358C10.0442 15.4836 10.354 15.1915 10.5154 14.824C10.5891 14.6563 10.618 14.4611 10.6293 14.1766C10.6458 13.7582 10.8733 13.3711 11.2579 13.1617C11.6423 12.9525 12.1117 12.9603 12.5042 13.1559C12.7714 13.289 12.965 13.363 13.1559 13.3867C13.5743 13.4386 13.9974 13.3317 14.3321 13.0895C14.5832 12.9079 14.7685 12.6052 15.1392 12C15.3042 11.7305 15.4325 11.521 15.5277 11.3454M14.8834 9.2706C14.5075 9.04792 14.2657 8.66858 14.2656 8.25008C14.2656 7.8315 14.5075 7.45208 14.8834 7.2294C15.1392 7.0779 15.304 6.95678 15.4212 6.8127C15.6781 6.49709 15.7914 6.09819 15.7364 5.70376C15.6951 5.40795 15.5098 5.10531 15.1391 4.50004C14.7684 3.89476 14.5831 3.59212 14.332 3.41049C13.9973 3.16831 13.5742 3.06143 13.1558 3.11335C12.9649 3.13706 12.7713 3.21105 12.5042 3.34412C12.1117 3.53973 11.6423 3.54753 11.2578 3.33822C10.8733 3.12893 10.6458 2.74178 10.6293 2.32352C10.618 2.03889 10.5891 1.84376 10.5154 1.67597C10.354 1.30844 10.0442 1.01642 9.6544 0.86418C9.36198 0.75 8.99136 0.75 8.25005 0.75C7.50873 0.75 7.13811 0.75 6.84569 0.86418C6.45588 1.01642 6.14616 1.30844 5.98468 1.67597C5.91097 1.84375 5.88213 2.03886 5.87083 2.32345C5.85424 2.74174 5.62672 3.12893 5.24223 3.33822C4.85774 3.54752 4.38833 3.53969 3.99581 3.3441C3.72875 3.21102 3.5351 3.13702 3.34415 3.11331C2.9258 3.06139 2.50271 3.16827 2.16795 3.41045C1.91689 3.59209 1.73156 3.89473 1.3609 4.5C1.1959 4.76947 1.06762 4.97894 0.972419 5.15455" stroke="#757B8F" stroke-width="1.5" stroke-linecap="round"/>
</svg>
