<svg width="21" height="16" viewBox="0 0 21 16" fill="none" xmlns="http://www.w3.org/2000/svg">
<path d="M20.613 5.63452C20.4912 5.51262 20.3465 5.41591 20.1873 5.34994C20.0281 5.28396 19.8574 5.25 19.6851 5.25C19.5127 5.25 19.342 5.28396 19.1828 5.34994C19.0236 5.41591 18.8789 5.51262 18.7571 5.63452L18.1861 6.20546C17.8038 4.44966 16.8331 2.87719 15.4348 1.74861C14.0364 0.620031 12.2945 0.00308399 10.4976 0C8.78686 0.00180312 7.12449 0.56764 5.76794 1.60987C5.49055 1.81995 5.30798 2.13162 5.26038 2.47632C5.21279 2.82101 5.30407 3.17049 5.51416 3.44788C5.72424 3.72527 6.03591 3.90785 6.3806 3.95544C6.7253 4.00303 7.07478 3.91175 7.35217 3.70167C8.25376 3.00675 9.35924 2.62835 10.4976 2.625C11.598 2.62897 12.6693 2.97924 13.5595 3.62617C14.4497 4.27309 15.1137 5.18383 15.4573 6.22926L14.5888 5.53711C14.4542 5.42948 14.2997 5.34945 14.1341 5.30158C13.9685 5.25372 13.7951 5.23896 13.6238 5.25816C13.4525 5.27735 13.2867 5.33012 13.1358 5.41345C12.9849 5.49678 12.8519 5.60903 12.7445 5.74379C12.637 5.87855 12.5571 6.03317 12.5095 6.19881C12.4618 6.36445 12.4473 6.53786 12.4667 6.70913C12.4861 6.8804 12.539 7.04617 12.6225 7.19695C12.706 7.34773 12.8184 7.48058 12.9533 7.58789L16.2423 10.2129C16.4942 10.4144 16.8116 10.5159 17.1337 10.4979C17.4558 10.4799 17.7599 10.3438 17.9879 10.1155L20.6129 7.49048C20.7348 7.36865 20.8315 7.22399 20.8975 7.06477C20.9635 6.90555 20.9975 6.73488 20.9975 6.56253C20.9975 6.39018 20.9635 6.21951 20.8976 6.06028C20.8316 5.90105 20.7349 5.75637 20.613 5.63452Z" fill="#E7292D"/>
<path d="M13.6425 12.0485C12.7409 12.7434 11.6354 13.1218 10.4971 13.1251C9.3967 13.1212 8.32543 12.7709 7.43522 12.124C6.54501 11.477 5.88104 10.5663 5.53744 9.52087L6.40587 10.213C6.54051 10.3206 6.69503 10.4007 6.86062 10.4485C7.0262 10.4964 7.1996 10.5112 7.37089 10.492C7.54218 10.4728 7.70801 10.42 7.85889 10.3367C8.00977 10.2533 8.14275 10.1411 8.25022 10.0063C8.35769 9.87158 8.43754 9.71696 8.48521 9.55131C8.53288 9.38567 8.54743 9.21226 8.52803 9.04099C8.50863 8.86972 8.45567 8.70396 8.37216 8.55317C8.28865 8.40239 8.17624 8.26955 8.04136 8.16224L4.75243 5.53724C4.50017 5.33653 4.18293 5.23555 3.86107 5.25351C3.5392 5.27147 3.23517 5.40712 3.00681 5.63465L0.381805 8.25965C0.13682 8.506 -0.0004821 8.83944 1.27197e-06 9.18687C0.000484644 9.5343 0.138714 9.86736 0.384384 10.113C0.630053 10.3587 0.963114 10.4969 1.31054 10.4974C1.65797 10.4979 1.99142 10.3606 2.23777 10.1156L2.80871 9.54467C3.19102 11.3004 4.16174 12.8729 5.56003 14.0015C6.95831 15.13 8.70022 15.747 10.4971 15.7501C12.2078 15.7483 13.8702 15.1825 15.2267 14.1403C15.5041 13.9302 15.6867 13.6185 15.7343 13.2738C15.7819 12.9291 15.6906 12.5796 15.4805 12.3022C15.3765 12.1649 15.2465 12.0494 15.0978 11.9623C14.9491 11.8752 14.7848 11.8183 14.6141 11.7947C14.2694 11.7471 13.9199 11.8384 13.6425 12.0485Z" fill="#E7292D"/>
</svg>
