<svg width="16" height="9" viewBox="0 0 16 9" fill="none" xmlns="http://www.w3.org/2000/svg">
<path d="M15.0155 3.7268H11.6055L10.3326 1.8634H11.9139C12.4577 1.8634 12.8985 1.44609 12.8985 0.9317C12.8985 0.417122 12.4577 0 11.9139 0H4.08618C3.54247 0 3.10156 0.417122 3.10156 0.9317C3.10156 1.44609 3.54247 1.8634 4.08618 1.8634H5.66748L4.39466 3.7268H0.984621C0.440914 3.7268 0 4.14392 0 4.6585C0 5.17289 0.440914 5.5902 0.984621 5.5902H3.12194L1.77478 7.56243C1.47959 7.99446 1.61055 8.57127 2.06731 8.8506C2.52408 9.13011 3.13356 9.006 3.42865 8.57379L5.46662 5.5902H10.5335L12.5715 8.57379C12.7599 8.84966 13.0764 8.99976 13.3994 8.99976C13.5825 8.99976 13.7677 8.9515 13.933 8.8505C14.3897 8.57118 14.5206 7.99436 14.2254 7.56215L12.8783 5.59011H15.0154C15.5592 5.59011 16 5.1728 16 4.65841C16.0001 4.14392 15.5592 3.7268 15.0155 3.7268ZM6.73944 3.7268L7.94501 1.96169C7.96923 1.9262 8.03067 1.92601 8.05509 1.96188L9.26056 3.7268H6.73944Z" fill="white"/>
</svg>
