<svg width="15" height="16" viewBox="0 0 15 16" fill="none" xmlns="http://www.w3.org/2000/svg">
<path fill-rule="evenodd" clip-rule="evenodd" d="M3.30882 6.66667C2.8743 6.66667 2.44404 6.58045 2.04259 6.41293C1.64115 6.24542 1.27638 5.99988 0.969132 5.69036C0.661879 5.38083 0.418153 5.01336 0.251869 4.60894C0.0855851 4.20453 0 3.77107 0 3.33333C0 2.89559 0.0855851 2.46214 0.251869 2.05772C0.418153 1.6533 0.661879 1.28584 0.969132 0.976311C1.27638 0.666782 1.64115 0.42125 2.04259 0.253735C2.44404 0.0862191 2.8743 -6.52283e-09 3.30882 0C4.18638 1.31734e-08 5.02799 0.351189 5.64852 0.976311C6.26904 1.60143 6.61765 2.44928 6.61765 3.33333C6.61765 4.21739 6.26904 5.06523 5.64852 5.69036C5.02799 6.31548 4.18638 6.66667 3.30882 6.66667ZM1.94735 14.8507C1.78094 15.0126 1.55805 15.1022 1.3267 15.1002C1.09535 15.0981 0.87405 15.0046 0.710454 14.8398C0.546859 14.675 0.454063 14.4521 0.452052 14.219C0.450042 13.986 0.538978 13.7614 0.699706 13.5938L13.0526 1.14933C13.134 1.06444 13.2314 0.996718 13.3391 0.950132C13.4467 0.903546 13.5625 0.879025 13.6796 0.878C13.7968 0.876974 13.913 0.899464 14.0214 0.944158C14.1299 0.988852 14.2284 1.05486 14.3112 1.13832C14.3941 1.22178 14.4596 1.32102 14.504 1.43026C14.5483 1.5395 14.5707 1.65655 14.5696 1.77458C14.5686 1.89261 14.5443 2.00924 14.498 2.11769C14.4518 2.22614 14.3846 2.32422 14.3003 2.40622L1.94735 14.8507ZM8.38235 12.6667C8.38235 13.5507 8.73096 14.3986 9.35149 15.0237C9.97201 15.6488 10.8136 16 11.6912 16C12.5687 16 13.4103 15.6488 14.0309 15.0237C14.6514 14.3986 15 13.5507 15 12.6667C15 11.7826 14.6514 10.9348 14.0309 10.3096C13.4103 9.68452 12.5687 9.33333 11.6912 9.33333C10.8136 9.33333 9.97201 9.68452 9.35149 10.3096C8.73096 10.9348 8.38235 11.7826 8.38235 12.6667ZM3.30882 4.88889C3.71835 4.88889 4.1111 4.725 4.40068 4.43328C4.69026 4.14155 4.85294 3.74589 4.85294 3.33333C4.85294 2.92077 4.69026 2.52511 4.40068 2.23339C4.1111 1.94167 3.71835 1.77778 3.30882 1.77778C2.8993 1.77778 2.50655 1.94167 2.21697 2.23339C1.92739 2.52511 1.76471 2.92077 1.76471 3.33333C1.76471 3.74589 1.92739 4.14155 2.21697 4.43328C2.50655 4.725 2.8993 4.88889 3.30882 4.88889ZM13.2353 12.6667C13.2353 13.0792 13.0726 13.4749 12.783 13.7666C12.4935 14.0583 12.1007 14.2222 11.6912 14.2222C11.2817 14.2222 10.8889 14.0583 10.5993 13.7666C10.3097 13.4749 10.1471 13.0792 10.1471 12.6667C10.1471 12.2541 10.3097 11.8584 10.5993 11.5667C10.8889 11.275 11.2817 11.1111 11.6912 11.1111C12.1007 11.1111 12.4935 11.275 12.783 11.5667C13.0726 11.8584 13.2353 12.2541 13.2353 12.6667Z" fill="#757B8F"/>
</svg>
