<svg width="22" height="22" viewBox="0 0 22 22" fill="none" xmlns="http://www.w3.org/2000/svg">
<g clip-path="url(#clip0_2133_1382)">
<path d="M10.9945 1.375C13.3292 1.375 15.8056 3.34125 15.8056 4.80906V8.2445C15.8056 9.56725 15.2556 12.0972 13.7809 13.2584C13.4049 13.5541 13.2096 14.025 13.266 14.5007C13.3224 14.9765 13.6221 15.3883 14.0573 15.5884L20.0406 18.4257C20.0874 18.447 20.614 18.5357 20.614 19.2713L20.6147 20.6133L1.37569 20.6147V19.2197C1.37569 18.6732 1.78544 18.5013 1.94975 18.4264L7.98738 15.5767C8.4205 15.378 8.71956 14.9682 8.77731 14.4952C8.83506 14.0222 8.64463 13.5534 8.27338 13.2557C6.84475 12.1089 6.17925 9.58787 6.17925 8.24587V4.81044C6.17994 3.37425 8.68038 1.37637 10.9945 1.37637V1.375ZM10.9945 0C7.9585 0 4.80425 2.53412 4.80425 4.80975V8.24519C4.80425 9.74669 5.48969 12.7834 7.41194 14.3275L1.37363 17.1772C1.37363 17.1772 0 17.7891 0 18.5515V20.6147C0 21.3744 0.615312 21.989 1.37363 21.989H20.614C21.3737 21.989 21.9883 21.3737 21.9883 20.6147V18.5515C21.9883 17.7437 20.614 17.1772 20.614 17.1772L14.6307 14.3399C16.5351 12.8411 17.1799 9.89587 17.1799 8.24519V4.80975C17.1799 2.53412 14.0298 0.0006875 10.9938 0.0006875L10.9945 0Z" fill="#0B1928"/>
</g>
<defs>
<clipPath id="clip0_2133_1382">
<rect width="22" height="22" fill="white"/>
</clipPath>
</defs>
</svg>
